<svg xmlns="http://www.w3.org/2000/svg" xmlns:xlink="http://www.w3.org/1999/xlink" width="200" zoomAndPan="magnify" viewBox="0 0 150 149.999998" height="200" preserveAspectRatio="xMidYMid meet" version="1.0"><defs><clipPath id="4ce1b32e35"><path d="M 8 22 L 147 22 L 147 147 L 8 147 Z M 8 22 " clip-rule="nonzero"/></clipPath><clipPath id="75ce55953c"><path d="M 14.707031 152.195312 L 1.277344 4.300781 L 139.460938 -8.242188 L 152.886719 139.648438 Z M 14.707031 152.195312 " clip-rule="nonzero"/></clipPath><clipPath id="20c67f5f98"><path d="M 14.707031 152.195312 L 1.277344 4.300781 L 139.460938 -8.242188 L 152.886719 139.648438 Z M 14.707031 152.195312 " clip-rule="nonzero"/></clipPath><clipPath id="9119b9956b"><path d="M 34 2 L 132 2 L 132 101 L 34 101 Z M 34 2 " clip-rule="nonzero"/></clipPath><clipPath id="6866dfe529"><path d="M 14.707031 152.195312 L 1.277344 4.300781 L 139.460938 -8.242188 L 152.886719 139.648438 Z M 14.707031 152.195312 " clip-rule="nonzero"/></clipPath><clipPath id="2732c1168f"><path d="M 14.707031 152.195312 L 1.277344 4.300781 L 139.460938 -8.242188 L 152.886719 139.648438 Z M 14.707031 152.195312 " clip-rule="nonzero"/></clipPath><clipPath id="96c0280940"><path d="M 15 2 L 133 2 L 133 121 L 15 121 Z M 15 2 " clip-rule="nonzero"/></clipPath><clipPath id="81cc7ed49e"><path d="M 14.707031 152.195312 L 1.277344 4.300781 L 139.460938 -8.242188 L 152.886719 139.648438 Z M 14.707031 152.195312 " clip-rule="nonzero"/></clipPath><clipPath id="7c1237a1e9"><path d="M 14.707031 152.195312 L 1.277344 4.300781 L 139.460938 -8.242188 L 152.886719 139.648438 Z M 14.707031 152.195312 " clip-rule="nonzero"/></clipPath><clipPath id="6a56b2929f"><path d="M 65.113281 5.726562 L 150 5.726562 L 150 94.976562 L 65.113281 94.976562 Z M 65.113281 5.726562 " clip-rule="nonzero"/></clipPath></defs><g clip-path="url(#4ce1b32e35)"><g clip-path="url(#75ce55953c)"><g clip-path="url(#20c67f5f98)"><path fill="#000000" d="M 133.0625 53.457031 C 131.988281 41.632812 127.410156 30.976562 120.445312 22.417969 C 134.851562 33.796875 144.742188 50.84375 146.53125 70.566406 C 149.992188 108.699219 121.882812 142.421875 83.753906 145.886719 C 45.617188 149.347656 11.898438 121.242188 8.4375 83.109375 C 6.644531 63.375 13.304688 44.820312 25.4375 31.035156 C 20.121094 40.710938 17.53125 52.027344 18.605469 63.851562 C 21.472656 95.457031 49.425781 118.753906 81.03125 115.882812 C 112.636719 113.015625 135.929688 85.0625 133.0625 53.457031 Z M 133.0625 53.457031 " fill-opacity="1" fill-rule="nonzero"/></g></g></g><g clip-path="url(#9119b9956b)"><g clip-path="url(#6866dfe529)"><g clip-path="url(#2732c1168f)"><path fill="#d9d9d9" d="M 70.367188 92.109375 C 77.191406 96.945312 84.992188 99.367188 92.761719 99.554688 C 80.078125 102.066406 66.425781 99.558594 55.042969 91.492188 C 33.039062 75.898438 27.84375 45.417969 43.4375 23.414062 C 59.035156 1.40625 89.515625 -3.785156 111.519531 11.808594 C 122.90625 19.878906 129.792969 31.933594 131.625 44.742188 C 128.875 37.464844 124 30.898438 117.179688 26.066406 C 98.941406 13.140625 73.675781 17.445312 60.75 35.683594 C 47.824219 53.917969 52.132812 79.183594 70.367188 92.109375 Z M 70.367188 92.109375 " fill-opacity="1" fill-rule="nonzero"/></g></g></g><g clip-path="url(#96c0280940)"><g clip-path="url(#81cc7ed49e)"><g clip-path="url(#7c1237a1e9)"><path fill="#545454" d="M 118.433594 87.0625 C 125.882812 80.296875 130.75 71.757812 132.984375 62.675781 C 132.644531 78.234375 126.164062 93.625 113.738281 104.910156 C 89.714844 126.726562 52.550781 124.9375 30.734375 100.914062 C 8.914062 76.890625 10.707031 39.730469 34.730469 17.910156 C 47.164062 6.621094 63.113281 1.648438 78.632812 2.816406 C 69.375 4.164062 60.394531 8.191406 52.949219 14.953125 C 33.035156 33.035156 31.554688 63.839844 49.636719 83.75 C 67.71875 103.664062 98.519531 105.144531 118.433594 87.0625 Z M 118.433594 87.0625 " fill-opacity="1" fill-rule="nonzero"/></g></g></g><g clip-path="url(#6a56b2929f)"><path fill="#ffbd59" d="M 65.113281 29.707031 C 65.113281 29.707031 81.429688 36.71875 91.25 54.820312 C 91.25 54.820312 126.730469 13.816406 170.792969 5.734375 C 170.792969 5.734375 117.953125 24.816406 79.792969 95.269531 C 79.792969 95.269531 87.132812 52.214844 65.113281 29.707031 " fill-opacity="1" fill-rule="nonzero"/></g></svg>