<svg xmlns="http://www.w3.org/2000/svg" xmlns:xlink="http://www.w3.org/1999/xlink" width="200" zoomAndPan="magnify" viewBox="0 0 150 149.999998" height="200" preserveAspectRatio="xMidYMid meet" version="1.0"><defs><g/><clipPath id="bacc89bcd0"><path d="M 6 40 L 46 40 L 46 76 L 6 76 Z M 6 40 " clip-rule="nonzero"/></clipPath><clipPath id="e1799c8ff5"><path d="M 8.273438 77.363281 L 4.410156 34.785156 L 43.996094 31.191406 L 47.863281 73.765625 Z M 8.273438 77.363281 " clip-rule="nonzero"/></clipPath><clipPath id="e7d44748fb"><path d="M 8.273438 77.363281 L 4.410156 34.785156 L 43.996094 31.191406 L 47.863281 73.765625 Z M 8.273438 77.363281 " clip-rule="nonzero"/></clipPath><clipPath id="2f5c226e08"><path d="M 13 34 L 42 34 L 42 63 L 13 63 Z M 13 34 " clip-rule="nonzero"/></clipPath><clipPath id="91bc05fb61"><path d="M 8.273438 77.363281 L 4.410156 34.785156 L 43.996094 31.191406 L 47.863281 73.765625 Z M 8.273438 77.363281 " clip-rule="nonzero"/></clipPath><clipPath id="6a6edb1807"><path d="M 8.273438 77.363281 L 4.410156 34.785156 L 43.996094 31.191406 L 47.863281 73.765625 Z M 8.273438 77.363281 " clip-rule="nonzero"/></clipPath><clipPath id="ee93a5800a"><path d="M 8 34 L 43 34 L 43 69 L 8 69 Z M 8 34 " clip-rule="nonzero"/></clipPath><clipPath id="c758220bb9"><path d="M 8.273438 77.363281 L 4.410156 34.785156 L 43.996094 31.191406 L 47.863281 73.765625 Z M 8.273438 77.363281 " clip-rule="nonzero"/></clipPath><clipPath id="5d8892d262"><path d="M 8.273438 77.363281 L 4.410156 34.785156 L 43.996094 31.191406 L 47.863281 73.765625 Z M 8.273438 77.363281 " clip-rule="nonzero"/></clipPath><clipPath id="0c3f8cd5b0"><path d="M 22.664062 35.5625 L 52.664062 35.5625 L 52.664062 61.0625 L 22.664062 61.0625 Z M 22.664062 35.5625 " clip-rule="nonzero"/></clipPath></defs><g clip-path="url(#bacc89bcd0)"><g clip-path="url(#e1799c8ff5)"><g clip-path="url(#e7d44748fb)"><path fill="#000000" d="M 42.050781 49.183594 C 41.746094 45.8125 40.4375 42.769531 38.453125 40.328125 C 42.5625 43.574219 45.386719 48.4375 45.894531 54.066406 C 46.882812 64.949219 38.863281 74.574219 27.980469 75.5625 C 17.097656 76.550781 7.472656 68.53125 6.484375 57.648438 C 5.972656 52.015625 7.875 46.71875 11.335938 42.785156 C 9.820312 45.546875 9.082031 48.777344 9.386719 52.152344 C 10.207031 61.171875 18.183594 67.820312 27.203125 67 C 36.222656 66.183594 42.871094 58.207031 42.050781 49.183594 Z M 42.050781 49.183594 " fill-opacity="1" fill-rule="nonzero"/></g></g></g><g clip-path="url(#2f5c226e08)"><g clip-path="url(#91bc05fb61)"><g clip-path="url(#6a6edb1807)"><path fill="#d9d9d9" d="M 24.160156 60.214844 C 26.105469 61.597656 28.332031 62.289062 30.550781 62.339844 C 26.929688 63.058594 23.035156 62.34375 19.785156 60.039062 C 13.507812 55.589844 12.023438 46.890625 16.472656 40.609375 C 20.925781 34.332031 29.625 32.847656 35.902344 37.300781 C 39.152344 39.601562 41.121094 43.042969 41.640625 46.699219 C 40.855469 44.621094 39.464844 42.746094 37.519531 41.367188 C 32.316406 37.679688 25.105469 38.90625 21.414062 44.113281 C 17.726562 49.316406 18.957031 56.527344 24.160156 60.214844 Z M 24.160156 60.214844 " fill-opacity="1" fill-rule="nonzero"/></g></g></g><g clip-path="url(#ee93a5800a)"><g clip-path="url(#c758220bb9)"><g clip-path="url(#5d8892d262)"><path fill="#545454" d="M 37.878906 58.773438 C 40.003906 56.84375 41.394531 54.40625 42.03125 51.816406 C 41.933594 56.253906 40.085938 60.648438 36.539062 63.871094 C 29.683594 70.097656 19.074219 69.585938 12.847656 62.730469 C 6.621094 55.871094 7.132812 45.265625 13.988281 39.039062 C 17.539062 35.820312 22.089844 34.398438 26.519531 34.734375 C 23.875 35.117188 21.3125 36.265625 19.1875 38.195312 C 13.507812 43.355469 13.082031 52.148438 18.242188 57.832031 C 23.402344 63.511719 32.195312 63.9375 37.878906 58.773438 Z M 37.878906 58.773438 " fill-opacity="1" fill-rule="nonzero"/></g></g></g><g clip-path="url(#0c3f8cd5b0)"><path fill="#ffbd59" d="M 22.664062 42.40625 C 22.664062 42.40625 27.320312 44.40625 30.125 49.574219 C 30.125 49.574219 40.253906 37.871094 52.828125 35.5625 C 52.828125 35.5625 37.746094 41.007812 26.855469 61.117188 C 26.855469 61.117188 28.949219 48.828125 22.664062 42.40625 " fill-opacity="1" fill-rule="nonzero"/></g><g fill="#000000" fill-opacity="1"><g transform="translate(47.699849, 60.888866)"><g><path d="M 12.546875 -10.734375 C 12.015625 -11.316406 11.382812 -11.773438 10.65625 -12.109375 C 9.9375 -12.441406 9.207031 -12.609375 8.46875 -12.609375 C 7.5 -12.609375 6.613281 -12.378906 5.8125 -11.921875 C 5.007812 -11.460938 4.378906 -10.832031 3.921875 -10.03125 C 3.460938 -9.226562 3.234375 -8.34375 3.234375 -7.375 C 3.234375 -6.425781 3.460938 -5.550781 3.921875 -4.75 C 4.390625 -3.945312 5.019531 -3.3125 5.8125 -2.84375 C 6.613281 -2.375 7.5 -2.140625 8.46875 -2.140625 C 9.1875 -2.140625 9.90625 -2.296875 10.625 -2.609375 C 11.351562 -2.921875 11.992188 -3.347656 12.546875 -3.890625 L 14.015625 -2.265625 C 13.265625 -1.503906 12.382812 -0.90625 11.375 -0.46875 C 10.375 -0.03125 9.363281 0.1875 8.34375 0.1875 C 6.925781 0.1875 5.632812 -0.144531 4.46875 -0.8125 C 3.300781 -1.488281 2.382812 -2.398438 1.71875 -3.546875 C 1.050781 -4.691406 0.71875 -5.960938 0.71875 -7.359375 C 0.71875 -8.734375 1.054688 -9.992188 1.734375 -11.140625 C 2.410156 -12.285156 3.335938 -13.1875 4.515625 -13.84375 C 5.691406 -14.5 6.992188 -14.828125 8.421875 -14.828125 C 9.453125 -14.828125 10.457031 -14.617188 11.4375 -14.203125 C 12.425781 -13.796875 13.28125 -13.238281 14 -12.53125 Z M 12.546875 -10.734375 "/></g></g></g><g fill="#000000" fill-opacity="1"><g transform="translate(62.296032, 60.888866)"><g><path d="M 8.421875 -11.234375 C 9.722656 -11.234375 10.738281 -10.851562 11.46875 -10.09375 C 12.207031 -9.332031 12.578125 -8.28125 12.578125 -6.9375 L 12.578125 0 L 10.15625 0 L 10.15625 -6.265625 C 10.15625 -7.097656 9.914062 -7.753906 9.4375 -8.234375 C 8.96875 -8.722656 8.316406 -8.96875 7.484375 -8.96875 C 6.503906 -8.957031 5.726562 -8.625 5.15625 -7.96875 C 4.582031 -7.320312 4.296875 -6.492188 4.296875 -5.484375 L 4.296875 0 L 1.890625 0 L 1.890625 -15.546875 L 4.296875 -15.546875 L 4.296875 -8.96875 C 5.066406 -10.476562 6.441406 -11.234375 8.421875 -11.234375 Z M 8.421875 -11.234375 "/></g></g></g><g fill="#000000" fill-opacity="1"><g transform="translate(76.305854, 60.888866)"><g><path d="M 6.375 -11.234375 C 8.132812 -11.234375 9.445312 -10.734375 10.3125 -9.734375 C 11.1875 -8.742188 11.625 -7.347656 11.625 -5.546875 C 11.625 -5.367188 11.613281 -5.070312 11.59375 -4.65625 L 3.15625 -4.65625 C 3.351562 -3.789062 3.757812 -3.109375 4.375 -2.609375 C 4.988281 -2.109375 5.738281 -1.859375 6.625 -1.859375 C 7.21875 -1.859375 7.785156 -1.96875 8.328125 -2.1875 C 8.878906 -2.414062 9.359375 -2.738281 9.765625 -3.15625 L 11.046875 -1.796875 C 10.484375 -1.203125 9.8125 -0.738281 9.03125 -0.40625 C 8.25 -0.0820312 7.382812 0.078125 6.4375 0.078125 C 5.300781 0.078125 4.300781 -0.15625 3.4375 -0.625 C 2.582031 -1.101562 1.914062 -1.765625 1.4375 -2.609375 C 0.96875 -3.460938 0.734375 -4.441406 0.734375 -5.546875 C 0.734375 -6.648438 0.96875 -7.628906 1.4375 -8.484375 C 1.914062 -9.347656 2.582031 -10.019531 3.4375 -10.5 C 4.300781 -10.988281 5.28125 -11.234375 6.375 -11.234375 Z M 9.484375 -6.40625 C 9.441406 -7.300781 9.140625 -8.003906 8.578125 -8.515625 C 8.023438 -9.035156 7.296875 -9.296875 6.390625 -9.296875 C 5.515625 -9.296875 4.78125 -9.035156 4.1875 -8.515625 C 3.601562 -8.003906 3.25 -7.300781 3.125 -6.40625 Z M 9.484375 -6.40625 "/></g></g></g><g fill="#000000" fill-opacity="1"><g transform="translate(88.619421, 60.888866)"><g><path d="M 9.640625 -7.859375 C 8.828125 -8.691406 7.789062 -9.109375 6.53125 -9.109375 C 5.539062 -9.109375 4.726562 -8.78125 4.09375 -8.125 C 3.457031 -7.46875 3.140625 -6.609375 3.140625 -5.546875 C 3.140625 -4.503906 3.445312 -3.648438 4.0625 -2.984375 C 4.6875 -2.316406 5.484375 -1.984375 6.453125 -1.984375 C 7.878906 -1.984375 8.976562 -2.429688 9.75 -3.328125 L 11.078125 -1.984375 C 10.578125 -1.316406 9.925781 -0.804688 9.125 -0.453125 C 8.320312 -0.0976562 7.394531 0.078125 6.34375 0.078125 C 5.257812 0.078125 4.289062 -0.15625 3.4375 -0.625 C 2.582031 -1.101562 1.914062 -1.765625 1.4375 -2.609375 C 0.96875 -3.460938 0.734375 -4.441406 0.734375 -5.546875 C 0.734375 -6.671875 0.96875 -7.660156 1.4375 -8.515625 C 1.914062 -9.378906 2.582031 -10.046875 3.4375 -10.515625 C 4.289062 -10.992188 5.257812 -11.234375 6.34375 -11.234375 C 7.34375 -11.234375 8.234375 -11.070312 9.015625 -10.75 C 9.796875 -10.4375 10.441406 -9.988281 10.953125 -9.40625 Z M 9.640625 -7.859375 "/></g></g></g><g fill="#000000" fill-opacity="1"><g transform="translate(100.430387, 60.888866)"><g><path d="M 12.296875 0 L 9.453125 0 L 6.1875 -5.109375 L 4.296875 -3.125 L 4.296875 0 L 1.890625 0 L 1.890625 -15.546875 L 4.296875 -15.546875 L 4.296875 -6.15625 L 9.21875 -11.140625 L 11.984375 -11.140625 L 7.859375 -6.828125 Z M 12.296875 0 "/></g></g></g><g fill="#ffbd59" fill-opacity="1"><g transform="translate(112.891252, 60.888866)"><g><path d="M 7.9375 -14.671875 C 9.394531 -14.671875 10.695312 -14.351562 11.84375 -13.71875 C 13 -13.09375 13.898438 -12.21875 14.546875 -11.09375 C 15.203125 -9.976562 15.53125 -8.722656 15.53125 -7.328125 C 15.53125 -5.929688 15.203125 -4.675781 14.546875 -3.5625 C 13.890625 -2.457031 12.976562 -1.585938 11.8125 -0.953125 C 10.65625 -0.316406 9.34375 0 7.875 0 L 1.921875 0 L 1.921875 -14.671875 Z M 8 -2.21875 C 8.9375 -2.21875 9.789062 -2.429688 10.5625 -2.859375 C 11.332031 -3.296875 11.9375 -3.898438 12.375 -4.671875 C 12.8125 -5.453125 13.03125 -6.332031 13.03125 -7.3125 C 13.03125 -8.289062 12.800781 -9.171875 12.34375 -9.953125 C 11.894531 -10.734375 11.28125 -11.34375 10.5 -11.78125 C 9.71875 -12.226562 8.851562 -12.453125 7.90625 -12.453125 L 4.40625 -12.453125 L 4.40625 -2.21875 Z M 8 -2.21875 "/></g></g></g><g fill="#ffbd59" fill-opacity="1"><g transform="translate(129.120861, 60.888866)"><g><path d="M 9.484375 -11.140625 L 11.90625 -11.140625 L 11.90625 0 L 9.484375 0 L 9.484375 -2.171875 C 8.765625 -0.691406 7.441406 0.0546875 5.515625 0.078125 C 4.242188 0.078125 3.242188 -0.300781 2.515625 -1.0625 C 1.785156 -1.832031 1.421875 -2.882812 1.421875 -4.21875 L 1.421875 -11.140625 L 3.828125 -11.140625 L 3.828125 -4.875 C 3.828125 -4.039062 4.054688 -3.378906 4.515625 -2.890625 C 4.984375 -2.410156 5.625 -2.171875 6.4375 -2.171875 C 7.375 -2.191406 8.113281 -2.523438 8.65625 -3.171875 C 9.207031 -3.828125 9.484375 -4.65625 9.484375 -5.65625 Z M 9.484375 -11.140625 "/></g></g></g></svg>